<svg
  width="20"
  height="20"
  viewBox="0 0 20 20"
  fill="none"
  xmlns="http://www.w3.org/2000/svg">
  <path
    fillRule="evenodd"
    clipRule="evenodd"
    d="M13.993 8.222L9.375 12.84C9.228 12.987 9.037 13.06 8.845 13.06C8.652 13.06 8.461 12.987 8.314 12.84L6.005 10.531C5.712 10.238 5.712 9.763 6.005 9.47C6.298 9.177 6.772 9.177 7.065 9.47L8.845 11.249L12.932 7.161C13.225 6.868 13.7 6.868 13.993 7.161C14.286 7.454 14.286 7.929 13.993 8.222ZM14.217 0.5H5.782C2.623 0.5 0.5 2.721 0.5 6.027V13.975C0.5 17.28 2.623 19.5 5.782 19.5H14.216C17.376 19.5 19.5 17.28 19.5 13.975V6.027C19.5 2.721 17.377 0.5 14.217 0.5Z"
    fill="#4C5FD5"
  />
</svg>