<svg
  width="214"
  height="24"
  viewBox="0 0 214 24"
  fill="none"
  xmlns="http://www.w3.org/2000/svg">
  <path
    d="M5.63934 0.71558V9.94655H27.041V0.71558H32.1437V23.7214H27.041V13.7749H5.63934V23.7214H0.5L0.5 0.71558H5.63934Z"
    fill="white"
  />
  <path
    d="M39.0212 0.715581H66.2597V4.54393H44.1605V10.3043H64.7546V14.1327H44.1605V19.8931H66.6268V23.7214H39.0212V0.715581Z"
    fill="white"
  />
  <path
    d="M72.8357 23.7214V0.71558H89.9424C93.5888 0.71558 96.3788 1.37153 98.3121 2.68342C100.27 3.99532 101.249 5.80812 101.249 8.12182C101.249 9.45757 100.87 10.686 100.111 11.8071C99.3522 12.9043 98.2632 13.7868 96.8438 14.4547C98.0429 14.5262 98.8995 14.8244 99.4134 15.3492C99.9274 15.8501 100.184 16.7922 100.184 18.1757V23.7214H95.1184L95.0817 18.1757C95.0817 17.3409 94.9104 16.7445 94.5678 16.3868C94.2251 16.0051 93.6011 15.8143 92.6956 15.8143H77.975V23.7214H72.8357ZM77.975 12.0217H89.9424C91.9247 12.0217 93.4542 11.6759 94.5311 10.9841C95.6079 10.2686 96.1463 9.31445 96.1463 8.12182C96.1463 5.73656 94.0783 4.54393 89.9424 4.54393H77.975V12.0217Z"
    fill="white"
  />
  <path
    d="M107.261 23.7214V0.71558H113.135L126.093 20.0362L139.015 0.71558H144.925V23.7214H139.823V6.97689L128.589 23.7214H123.597L112.4 7.01267V23.7214H107.261Z"
    fill="white"
  />
  <path
    d="M151.889 0.71558H179.128V4.54393H157.028V10.3043H177.623V14.1327H157.028V19.8931H179.495V23.7214H151.889V0.71558Z"
    fill="white"
  />
  <path
    d="M189.382 16.3791C189.382 16.4984 189.406 16.6534 189.455 16.8442C189.504 17.0112 189.712 17.3213 190.079 17.7745C190.471 18.2277 190.973 18.6332 191.584 18.9909C192.221 19.3487 193.2 19.6707 194.521 19.957C195.867 20.2432 197.433 20.3863 199.22 20.3863C201.692 20.3863 203.796 20.0643 205.534 19.4203C207.296 18.7763 208.177 17.846 208.177 16.6295C208.177 15.8424 207.749 14.9317 206.892 14.4547C206.036 13.9776 204.922 13.6437 203.552 13.4529C202.206 13.2621 200.701 13.107 199.036 12.9878C197.397 12.8685 195.745 12.7135 194.081 12.5226C192.441 12.308 190.936 12.0217 189.565 11.6639C188.195 11.3061 187.081 10.7337 186.225 9.94655C185.368 9.13556 184.94 8.12182 184.94 6.90534C184.94 4.71089 186.151 3.01736 188.574 1.82473C190.997 0.608242 194.338 0 198.596 0C201.19 0 203.442 0.226601 205.35 0.679802C207.284 1.133 208.703 1.68161 209.609 2.32563C210.514 2.9458 211.224 3.57789 211.738 4.22192C212.276 4.86594 212.594 5.41455 212.692 5.86775L212.803 6.54755H207.443C207.418 6.47599 207.369 6.36865 207.296 6.22554C207.223 6.08242 206.99 5.84389 206.599 5.50996C206.232 5.17602 205.754 4.87786 205.167 4.61548C204.604 4.3531 203.747 4.11458 202.597 3.8999C201.447 3.68523 200.138 3.57789 198.669 3.57789C196.075 3.57789 194.019 3.91183 192.502 4.5797C191.009 5.22373 190.263 5.92738 190.263 6.69066C190.263 6.69066 190.263 6.70259 190.263 6.72644C190.263 7.34661 190.691 7.83559 191.548 8.19338C192.404 8.55117 193.506 8.80162 194.852 8.94474C196.222 9.064 197.739 9.18326 199.404 9.30253C201.068 9.39793 202.72 9.57683 204.359 9.83921C206.023 10.0777 207.529 10.4236 208.875 10.8768C210.245 11.3061 211.359 11.9859 212.215 12.9162C213.072 13.8226 213.5 15.2342 213.5 16.5938C213.5 18.0011 213.059 19.2176 212.178 20.2432C211.322 21.245 210.159 22.0083 208.691 22.5331C207.247 23.0578 205.742 23.4275 204.176 23.6422C202.634 23.8807 200.982 24 199.22 24C197.287 24 195.512 23.8569 193.897 23.5707C192.306 23.2844 190.997 22.9266 189.969 22.4973C188.941 22.0679 188.036 21.579 187.253 21.0303C186.494 20.4579 185.907 19.9212 185.491 19.4203C185.099 18.8955 184.781 18.3946 184.536 17.9176C184.316 17.4167 184.169 17.0589 184.096 16.8442C184.047 16.6057 184.022 16.4506 184.022 16.3791H189.382Z"
    fill="white"
  />
</svg>