<svg
  width="25"
  height="24"
  viewBox="0 0 25 24"
  fill="none"
  xmlns="http://www.w3.org/2000/svg">
  <path
    fillRule="evenodd"
    clipRule="evenodd"
    d="M14.249 7.99553C14.249 10.2017 12.4605 11.9911 10.2534 11.9911C8.04726 11.9911 6.25879 10.2017 6.25879 7.99553C6.25879 5.78934 8.04726 4 10.2534 4C12.4605 4 14.249 5.78934 14.249 7.99553Z"
    stroke="#141414"
    strokeWidth="1.5"
    strokeLinecap="round"
    strokeLinejoin="round"
  />
  <path
    fillRule="evenodd"
    clipRule="evenodd"
    d="M10.2535 14.875C6.87805 14.875 3.99902 15.3853 3.99902 17.428C3.99902 19.4707 6.86162 19.9991 10.2535 19.9991C13.6272 19.9991 16.508 19.4872 16.508 17.4461C16.508 15.4034 13.6462 14.875 10.2535 14.875Z"
    stroke="#141414"
    strokeWidth="1.5"
    strokeLinecap="round"
    strokeLinejoin="round"
  />
  <path
    d="M19.0472 8.56641V12.9857M21.3015 10.7758H16.7939"
    stroke="#141414"
    strokeWidth="1.5"
    strokeLinecap="round"
    strokeLinejoin="round"
  />
</svg>